<svg xmlns="http://www.w3.org/2000/svg" xmlns:xlink="http://www.w3.org/1999/xlink" version="1.1" width="256" height="256" viewBox="0 0 256 256" xml:space="preserve">
<desc>Created with Fabric.js 1.7.22</desc>
<defs>
</defs>
<g transform="translate(128 128) scale(0.72 0.72)" style="">
	<g style="stroke: none; stroke-width: 0; stroke-dasharray: none; stroke-linecap: butt; stroke-linejoin: miter; stroke-miterlimit: 10; fill: none; fill-rule: nonzero; opacity: 1;" transform="translate(-175.05 -175.05000000000004) scale(3.89 3.89)" >
	<circle cx="45" cy="45" r="45" style="stroke: none; stroke-width: 1; stroke-dasharray: none; stroke-linecap: butt; stroke-linejoin: miter; stroke-miterlimit: 10; fill: rgb(255,200,67); fill-rule: nonzero; opacity: 1;" transform="  matrix(1 0 0 1 0 0) "/>
	<circle cx="45" cy="45" r="37.5" style="stroke: none; stroke-width: 1; stroke-dasharray: none; stroke-linecap: butt; stroke-linejoin: miter; stroke-miterlimit: 10; fill: rgb(211,135,0); fill-rule: nonzero; opacity: 1;" transform="  matrix(1 0 0 1 0 0) "/>
	<path d="M 60.701 57.89 c 0.002 -0.02 0 -0.039 0.002 -0.059 c 0.014 -0.18 0.002 -0.362 -0.033 -0.541 c -0.004 -0.019 0.001 -0.038 -0.003 -0.056 l -4.652 -20.669 c -0.004 -0.019 -0.014 -0.037 -0.019 -0.056 c -0.019 -0.075 -0.046 -0.147 -0.074 -0.219 c -0.02 -0.053 -0.038 -0.106 -0.063 -0.157 c -0.035 -0.072 -0.078 -0.139 -0.122 -0.207 c -0.023 -0.035 -0.039 -0.074 -0.064 -0.108 l -9.208 -12.503 c -0.021 -0.028 -0.048 -0.049 -0.07 -0.075 c -0.061 -0.074 -0.124 -0.145 -0.195 -0.21 c -0.046 -0.043 -0.095 -0.081 -0.145 -0.119 c -0.062 -0.047 -0.126 -0.088 -0.192 -0.128 c -0.058 -0.034 -0.115 -0.068 -0.177 -0.096 c -0.079 -0.036 -0.162 -0.063 -0.247 -0.089 c -0.052 -0.016 -0.101 -0.036 -0.154 -0.048 c -0.139 -0.031 -0.282 -0.049 -0.431 -0.049 c -0.004 0 -0.008 0.001 -0.011 0.001 c -0.004 0 -0.007 -0.001 -0.011 -0.001 c -0.025 0 -0.048 0.008 -0.073 0.01 c -0.123 0.006 -0.243 0.02 -0.36 0.047 c -0.045 0.011 -0.088 0.027 -0.133 0.041 c -0.097 0.03 -0.19 0.064 -0.28 0.108 c -0.046 0.022 -0.09 0.047 -0.135 0.073 c -0.083 0.049 -0.162 0.103 -0.237 0.163 c -0.04 0.032 -0.08 0.062 -0.117 0.097 c -0.083 0.077 -0.157 0.161 -0.226 0.251 c -0.017 0.022 -0.038 0.038 -0.054 0.06 l -8.723 12.407 c -0.026 0.036 -0.043 0.078 -0.066 0.115 c -0.032 0.052 -0.064 0.104 -0.091 0.159 c -0.029 0.059 -0.051 0.12 -0.074 0.181 c -0.022 0.058 -0.044 0.115 -0.06 0.175 c -0.005 0.019 -0.015 0.037 -0.019 0.057 l -4.847 20.354 c -0.004 0.017 0 0.034 -0.004 0.051 c -0.037 0.175 -0.049 0.351 -0.039 0.528 c 0.002 0.027 -0.001 0.054 0.002 0.081 c 0.018 0.181 0.064 0.357 0.13 0.527 c 0.014 0.035 0.029 0.069 0.045 0.104 c 0.076 0.168 0.169 0.329 0.293 0.473 c 0.004 0.005 0.01 0.009 0.015 0.014 c 0.081 0.093 0.169 0.181 0.27 0.259 c 0.032 0.025 0.071 0.034 0.105 0.057 c 0.036 0.025 0.061 0.061 0.099 0.084 l 13.715 8.239 c 0.08 0.048 0.167 0.072 0.251 0.107 c 0.065 0.028 0.125 0.061 0.192 0.082 c 0.178 0.055 0.361 0.086 0.546 0.09 c 0.011 0 0.022 0.005 0.033 0.005 c 0.002 0 0.005 0 0.007 0 c 0.194 0 0.386 -0.036 0.573 -0.092 c 0.063 -0.019 0.12 -0.049 0.18 -0.074 c 0.079 -0.032 0.162 -0.054 0.237 -0.097 l 13.715 -7.827 c 0.045 -0.026 0.076 -0.067 0.119 -0.096 c 0.039 -0.026 0.085 -0.037 0.123 -0.066 c 0.081 -0.063 0.148 -0.135 0.216 -0.208 c 0.017 -0.018 0.036 -0.032 0.052 -0.05 c 0.124 -0.141 0.221 -0.298 0.299 -0.464 c 0.017 -0.035 0.031 -0.069 0.046 -0.105 C 60.63 58.25 60.681 58.073 60.701 57.89 z M 36.385 44.476 l 0.675 2.177 l -1.715 2.187 L 36.385 44.476 z M 49.976 43.255 l -3.121 -3.99 v -8.676 l 4.993 6.78 L 49.976 43.255 z M 44.853 43.198 l 3.655 4.673 l -3.484 10.956 l -3.522 -11.355 L 44.853 43.198 z M 42.854 39.264 l -2.793 3.562 l -1.729 -5.573 l 4.522 -6.431 V 39.264 z M 38.501 51.298 l 3.036 9.788 l -7.281 -4.374 L 38.501 51.298 z M 51.492 51.686 l 4.222 5.397 l -7.255 4.141 L 51.492 51.686 z M 52.96 47.07 l 0.772 -2.427 l 1.079 4.792 L 52.96 47.07 z" style="stroke: none; stroke-width: 1; stroke-dasharray: none; stroke-linecap: butt; stroke-linejoin: miter; stroke-miterlimit: 10; fill: rgb(255,200,67); fill-rule: nonzero; opacity: 1;" transform=" matrix(1 0 0 1 0 0) " stroke-linecap="round" />
</g>
</g>
</svg>